<svg width="9" height="8" viewBox="0 0 9 8" fill="none" xmlns="http://www.w3.org/2000/svg">
<path d="M8.89453 4.01953L5.51953 7.39453C5.48047 7.42578 5.43945 7.45117 5.39648 7.4707C5.35352 7.49023 5.30469 7.5 5.25 7.5C5.14844 7.5 5.06055 7.46289 4.98633 7.38867C4.91211 7.31445 4.875 7.22656 4.875 7.125C4.875 7.07031 4.88477 7.02148 4.9043 6.97852C4.92383 6.93555 4.94922 6.89453 4.98047 6.85547L7.72266 4.125H0.375C0.273438 4.125 0.185547 4.08789 0.111328 4.01367C0.0371094 3.93945 0 3.85156 0 3.75C0 3.64844 0.0371094 3.56055 0.111328 3.48633C0.185547 3.41211 0.273438 3.375 0.375 3.375H7.72266L4.98047 0.644531C4.94922 0.605469 4.92383 0.564453 4.9043 0.521484C4.88477 0.478516 4.875 0.429688 4.875 0.375C4.875 0.273438 4.91211 0.185547 4.98633 0.111328C5.06055 0.0371094 5.14844 0 5.25 0C5.30469 0 5.35352 0.00976562 5.39648 0.0292969C5.43945 0.0488281 5.48047 0.0742188 5.51953 0.105469L8.89453 3.48047C8.92578 3.51953 8.95117 3.56055 8.9707 3.60352C8.99023 3.64648 9 3.69531 9 3.75C9 3.80469 8.99023 3.85352 8.9707 3.89648C8.95117 3.93945 8.92578 3.98047 8.89453 4.01953Z" fill="#6B7280"/>
</svg>
